<?xml version="1.0" standalone="no"?><!DOCTYPE svg PUBLIC "-//W3C//DTD SVG 1.1//EN" "http://www.w3.org/Graphics/SVG/1.1/DTD/svg11.dtd"><svg t="1718846375847" class="icon" viewBox="0 0 1024 1024" version="1.1" xmlns="http://www.w3.org/2000/svg" p-id="4239" xmlns:xlink="http://www.w3.org/1999/xlink" width="16" height="16"><path d="M279.466667 320H123.733333c-12.8 0-21.333333-8.533333-21.333333-21.333333V142.933333c0-12.8 8.533333-21.333333 21.333333-21.333333s21.333333 8.533333 21.333334 21.333333V277.333333h134.4c12.8 0 21.333333 8.533333 21.333333 21.333334s-10.666667 21.333333-21.333333 21.333333z" fill="#ffffff" p-id="4240"></path><path d="M512 960C264.533333 960 64 759.466667 64 512c0-12.8 8.533333-21.333333 21.333333-21.333333s21.333333 8.533333 21.333334 21.333333c0 224 181.333333 405.333333 405.333333 405.333333s405.333333-181.333333 405.333333-405.333333S736 106.666667 512 106.666667c-145.066667 0-279.466667 76.8-352 202.666666-6.4 10.666667-19.2 12.8-29.866667 8.533334-10.666667-6.4-12.8-19.2-8.533333-29.866667C204.8 149.333333 352 64 512 64c247.466667 0 448 200.533333 448 448s-200.533333 448-448 448z" fill="#ffffff" p-id="4241"></path><path d="M693.333333 714.666667c-6.4 0-10.666667-2.133333-14.933333-6.4l-181.333333-181.333334c-4.266667-4.266667-6.4-8.533333-6.4-14.933333V256c0-12.8 8.533333-21.333333 21.333333-21.333333s21.333333 8.533333 21.333333 21.333333v247.466667l174.933334 174.933333c8.533333 8.533333 8.533333 21.333333 0 29.866667-4.266667 4.266667-10.666667 6.4-14.933334 6.4z" fill="#ffffff" p-id="4242"></path></svg>